<svg width="43" height="43" viewBox="0 0 43 43" fill="none" xmlns="http://www.w3.org/2000/svg">
<path fill-rule="evenodd" clip-rule="evenodd" d="M29 15.875C29 17.8641 28.2098 19.7718 26.8033 21.1783C25.3968 22.5848 23.4891 23.375 21.5 23.375C19.5109 23.375 17.6032 22.5848 16.1967 21.1783C14.7902 19.7718 14 17.8641 14 15.875C14 13.8859 14.7902 11.9782 16.1967 10.5717C17.6032 9.16518 19.5109 8.375 21.5 8.375C23.4891 8.375 25.3968 9.16518 26.8033 10.5717C28.2098 11.9782 29 13.8859 29 15.875ZM25.25 15.875C25.25 16.8696 24.8549 17.8234 24.1517 18.5266C23.4484 19.2299 22.4946 19.625 21.5 19.625C20.5054 19.625 19.5516 19.2299 18.8484 18.5266C18.1451 17.8234 17.75 16.8696 17.75 15.875C17.75 14.8804 18.1451 13.9266 18.8484 13.2233C19.5516 12.5201 20.5054 12.125 21.5 12.125C22.4946 12.125 23.4484 12.5201 24.1517 13.2233C24.8549 13.9266 25.25 14.8804 25.25 15.875Z" fill="white"/>
<path fill-rule="evenodd" clip-rule="evenodd" d="M21.5 0.875C10.1094 0.875 0.875 10.1094 0.875 21.5C0.875 32.8906 10.1094 42.125 21.5 42.125C32.8906 42.125 42.125 32.8906 42.125 21.5C42.125 10.1094 32.8906 0.875 21.5 0.875ZM4.625 21.5C4.625 25.4188 5.96187 29.0262 8.2025 31.8913C9.77606 29.8248 11.8061 28.1502 14.1339 26.9981C16.4618 25.846 19.0245 25.2477 21.6219 25.25C24.1856 25.2476 26.7161 25.8304 29.0205 26.954C31.3249 28.0776 33.3424 29.7124 34.9194 31.7337C36.544 29.603 37.6378 27.116 38.1104 24.4786C38.583 21.8412 38.4208 19.1291 37.6372 16.5668C36.8535 14.0046 35.471 11.6657 33.604 9.74382C31.737 7.82193 29.4392 6.37224 26.9007 5.5147C24.3622 4.65717 21.656 4.41645 19.006 4.81245C16.356 5.20845 13.8384 6.2298 11.6614 7.79198C9.48452 9.35415 7.7109 11.4123 6.4873 13.796C5.26371 16.1797 4.62534 18.8206 4.625 21.5ZM21.5 38.375C17.6262 38.3808 13.8692 37.0481 10.865 34.6025C12.0742 32.8714 13.6838 31.458 15.5566 30.4825C17.4295 29.5071 19.5102 28.9985 21.6219 29C23.7072 28.9983 25.7628 29.4942 27.618 30.4464C29.4732 31.3986 31.0744 32.7797 32.2887 34.475C29.2612 37.0001 25.4423 38.3805 21.5 38.375Z" fill="white"/>
<path fill-rule="evenodd" clip-rule="evenodd" d="M21.5 0.875C10.1094 0.875 0.875 10.1094 0.875 21.5C0.875 32.8906 10.1094 42.125 21.5 42.125C32.8906 42.125 42.125 32.8906 42.125 21.5C42.125 10.1094 32.8906 0.875 21.5 0.875ZM4.625 21.5C4.625 25.4188 5.96187 29.0262 8.2025 31.8913C9.77606 29.8248 11.8061 28.1502 14.1339 26.9981C16.4618 25.846 19.0245 25.2477 21.6219 25.25C24.1856 25.2476 26.7161 25.8304 29.0205 26.954C31.3249 28.0776 33.3424 29.7124 34.9194 31.7337C36.544 29.603 37.6378 27.116 38.1104 24.4786C38.583 21.8412 38.4208 19.1291 37.6372 16.5668C36.8535 14.0046 35.471 11.6657 33.604 9.74382C31.737 7.82193 29.4392 6.37224 26.9007 5.5147C24.3622 4.65717 21.656 4.41645 19.006 4.81245C16.356 5.20845 13.8384 6.2298 11.6614 7.79198C9.48452 9.35415 7.7109 11.4123 6.4873 13.796C5.26371 16.1797 4.62534 18.8206 4.625 21.5ZM21.5 38.375C17.6262 38.3808 13.8692 37.0481 10.865 34.6025C12.0742 32.8714 13.6838 31.458 15.5566 30.4825C17.4295 29.5071 19.5102 28.9985 21.6219 29C23.7072 28.9983 25.7628 29.4942 27.618 30.4464C29.4732 31.3986 31.0744 32.7797 32.2887 34.475C29.2612 37.0001 25.4423 38.3805 21.5 38.375Z" fill="white"/>
</svg>
