<svg width="45" height="45" viewBox="0 0 45 45" fill="none" xmlns="http://www.w3.org/2000/svg">
<path d="M30 21.5625C30 20.3193 30.4939 19.127 31.3729 18.2479C32.252 17.3689 33.4443 16.875 34.6875 16.875C35.9307 16.875 37.123 17.3689 38.0021 18.2479C38.8811 19.127 39.375 20.3193 39.375 21.5625C39.375 22.8057 38.8811 23.998 38.0021 24.8771C37.123 25.7561 35.9307 26.25 34.6875 26.25C33.4443 26.25 32.252 25.7561 31.3729 24.8771C30.4939 23.998 30 22.8057 30 21.5625ZM24.375 5.625V37.5H45V5.625H24.375ZM41.25 30C39.1875 30 37.5 31.6875 37.5 33.75H31.875C31.875 32.7554 31.4799 31.8016 30.7766 31.0984C30.0734 30.3951 29.1196 30 28.125 30V13.125C30.2062 13.125 31.875 11.4563 31.875 9.375H37.5C37.5 10.3696 37.8951 11.3234 38.5984 12.0267C39.3016 12.7299 40.2554 13.125 41.25 13.125V30ZM13.125 11.25C15.1875 11.25 16.875 12.9375 16.875 15C16.875 17.0625 15.1875 18.75 13.125 18.75C11.0625 18.75 9.375 17.0625 9.375 15C9.375 12.9375 11.0625 11.25 13.125 11.25ZM13.125 7.5C8.98125 7.5 5.625 10.8562 5.625 15C5.625 19.1438 8.98125 22.5 13.125 22.5C17.2687 22.5 20.625 19.1438 20.625 15C20.625 10.8562 17.2687 7.5 13.125 7.5ZM13.125 26.25C5.86875 26.25 0 29.6063 0 33.75V37.5H20.625V33.75H3.75C3.75 32.6625 7.03125 30 13.125 30C16.5562 30 19.0688 30.8438 20.625 31.7813V27.6C18.5063 26.7563 15.9375 26.25 13.125 26.25Z" fill="white"/>
</svg>
