<svg width="88" height="80" viewBox="0 0 88 80" fill="none" xmlns="http://www.w3.org/2000/svg">
<rect width="88" height="80" rx="25" fill="#16D39A"/>
<path d="M62.77 53.3308C65.7504 50.6745 67.438 47.134 67.438 43.4599C67.438 39.5552 65.6101 35.9034 62.2908 33.1767C59.0604 30.5237 54.7844 29.0625 50.25 29.0625C45.7156 29.0625 41.4396 30.5237 38.2097 33.1769C34.8904 35.9034 33.0625 39.5552 33.0625 43.4599C33.0625 47.3645 34.8904 51.0163 38.2097 53.7431C41.4396 56.3962 45.7156 57.8573 50.25 57.8573C50.8542 57.8573 51.4621 57.8307 52.0649 57.7776L53.0948 58.6703C56.6428 61.7448 61.1802 63.4373 65.875 63.4375H67.4375V60.1116L66.9799 59.6541C65.1746 57.8435 63.7441 55.6948 62.77 53.3308ZM55.1415 56.3086L53.075 54.5175L52.3859 54.602C51.6773 54.6886 50.964 54.7321 50.25 54.7321C42.4961 54.7321 36.1875 49.6754 36.1875 43.4599C36.1875 37.2443 42.4961 32.1875 50.25 32.1875C58.0039 32.1875 64.3125 37.2442 64.3125 43.4599C64.3125 46.5565 62.7676 49.4476 59.9623 51.6003L59.0624 52.2908L59.4776 53.4661C60.3286 55.8665 61.5794 58.1056 63.177 60.0889C60.2017 59.5922 57.4211 58.2841 55.1415 56.3086Z" fill="white"/>
<path d="M24.8774 46.0035C26.3401 44.1521 27.4884 42.0728 28.2767 39.8489L28.6888 38.6795L27.7896 37.9895C25.1443 35.9596 23.6875 33.2352 23.6875 30.3181C23.6875 24.4563 29.6454 19.6875 36.9688 19.6875C42.3563 19.6875 47.0046 22.2686 49.0856 25.9668C49.4721 25.948 49.8602 25.9375 50.25 25.9375C51.033 25.9375 51.8089 25.9755 52.5775 26.0515C51.7733 23.968 50.3767 22.066 48.4564 20.4889C45.3742 17.9569 41.2949 16.5625 36.9688 16.5625C32.6426 16.5625 28.5633 17.9569 25.4809 20.4889C22.3092 23.0942 20.5625 26.585 20.5625 30.3181C20.5625 33.8142 22.1594 37.1828 24.9814 39.7168C24.0605 41.9331 22.7148 43.9478 21.0202 45.6474L20.5625 46.105V49.375H22.125C25.0144 49.3746 27.864 48.7018 30.4483 47.4097C30.165 46.3356 29.9989 45.2339 29.9531 44.124C28.3845 45.0433 26.6665 45.6795 24.8774 46.0035Z" fill="white"/>
</svg>
