<svg width="42" height="42" viewBox="0 0 42 42" fill="none" xmlns="http://www.w3.org/2000/svg">
<g clip-path="url(#clip0_2_216)">
<path d="M1.05557 21.4569C1.28015 32.5015 10.4134 41.2707 21.458 41.0462C32.5026 40.8216 41.2719 31.6883 41.0473 20.6437C40.8227 9.59913 31.6895 0.829867 20.6449 1.05444C9.60027 1.27902 0.831001 10.4123 1.05557 21.4569ZM20.1034 10.5518L29.0295 19.1221C29.5314 19.5964 29.7866 20.2319 29.7996 20.8724C29.8127 21.5129 29.5816 22.1568 29.1033 22.6541L20.533 31.5802C19.5765 32.5764 17.9948 32.6086 16.9986 31.6521C16.0023 30.6956 15.9702 29.1139 16.9267 28.1177L23.7696 20.995L16.6463 14.1556C15.6501 13.1991 15.6179 11.6174 16.5744 10.6212C17.5309 9.62498 19.1072 9.59528 20.1034 10.5518Z" fill="white"/>
</g>
<defs>
<clipPath id="clip0_2_216">
<rect width="40" height="40" fill="white" transform="translate(1.46216 41.4528) rotate(-91.1649)"/>
</clipPath>
</defs>
</svg>
