<svg width="45" height="45" viewBox="0 0 45 45" fill="none" xmlns="http://www.w3.org/2000/svg">
<path d="M13.1259 5.65594C15.9007 3.80209 19.1629 2.81258 22.5 2.8125C26.9739 2.81771 31.2631 4.59728 34.4267 7.76083C37.5902 10.9244 39.3698 15.2136 39.375 19.6875C39.3747 23.1749 38.294 26.5766 36.2815 29.4247C34.2689 32.2728 31.4234 34.4274 28.1362 35.5922V35.4684C28.1812 35.4291 28.2234 35.3841 28.2656 35.3419C29.0464 34.5618 29.4855 33.5037 29.4862 32.4V32.0147C31.1807 31.0531 32.6588 29.7527 33.8284 28.1945C34.9981 26.6364 35.834 24.8539 36.2842 22.9584C36.7344 21.0628 36.7892 19.0948 36.4451 17.1771C36.1011 15.2595 35.3655 13.4333 34.2844 11.8125C33.0969 10.0344 31.5226 8.54788 29.6793 7.46438C27.8359 6.38088 25.7714 5.72842 23.6402 5.55587C21.5089 5.38332 19.3663 5.69515 17.3727 6.46799C15.3791 7.24084 13.5861 8.45469 12.1281 10.0186C10.67 11.5826 9.58468 13.4562 8.95331 15.499C8.32193 17.5418 8.16089 19.701 8.48223 21.815C8.80357 23.9289 9.59897 25.9427 10.8089 27.7056C12.0188 29.4686 13.6118 30.935 15.4687 31.995V32.4C15.4692 32.9766 15.5894 33.5469 15.8218 34.0746C16.0542 34.6023 16.3937 35.076 16.8187 35.4656V35.5781C13.8731 34.5267 11.2776 32.6772 9.32224 30.2361C7.36686 27.795 6.12849 24.8584 5.74543 21.7542C5.36237 18.6501 5.8497 15.5006 7.15299 12.6573C8.45628 9.81411 10.5242 7.38911 13.1259 5.65313V5.65594Z" fill="white"/>
<path d="M26.2772 33.3562C26.1515 33.4815 26.0023 33.5808 25.8383 33.6483C25.6742 33.7159 25.4984 33.7504 25.3209 33.75V40.8375C25.3209 41.1955 25.1787 41.5389 24.9255 41.7921C24.6724 42.0453 24.329 42.1875 23.9709 42.1875H20.9813C21.0122 42.1875 20.97 42.1763 20.8856 42.1537C20.6747 42.0975 20.2078 41.9738 20.0278 41.7909C19.902 41.6655 19.8023 41.5164 19.7342 41.3523C19.6662 41.1882 19.6312 41.0123 19.6313 40.8347V33.75C19.2732 33.75 18.9298 33.6078 18.6767 33.3546C18.4235 33.1014 18.2812 32.758 18.2812 32.4V26.7188C18.2812 25.9728 18.5776 25.2575 19.105 24.73C19.6325 24.2026 20.3478 23.9062 21.0938 23.9062H23.8613C24.6072 23.9062 25.3225 24.2026 25.85 24.73C26.3774 25.2575 26.6738 25.9728 26.6738 26.7188V32.4C26.6732 32.7523 26.5349 33.0904 26.2884 33.3422L26.2772 33.3534V33.3562Z" fill="white"/>
<path d="M29.9251 19.6875C29.9251 21.1641 29.4835 22.5956 28.6735 23.8078C29.1882 24.6572 29.4864 25.6528 29.4864 26.7187V27.0169C30.464 26.0859 31.2454 24.9687 31.7845 23.731C32.3236 22.4933 32.6094 21.1602 32.6251 19.8103C32.6409 18.4604 32.3862 17.121 31.8761 15.871C31.366 14.6211 30.6108 13.486 29.6551 12.5325C28.7165 11.5576 27.5919 10.7807 26.3479 10.2478C25.1039 9.71489 23.7657 9.4368 22.4124 9.42994C21.0591 9.42308 19.7181 9.6876 18.4688 10.2079C17.2194 10.7281 16.0871 11.4936 15.1386 12.4589C14.1901 13.4243 13.4448 14.57 12.9468 15.8284C12.4487 17.0867 12.2079 18.4322 12.2387 19.7852C12.2695 21.1381 12.5712 22.4712 13.126 23.7056C13.6808 24.94 14.4775 26.0506 15.4689 26.9719V26.7187C15.4689 25.6387 15.7726 24.6291 16.3014 23.7741C15.6642 22.8077 15.2617 21.7057 15.1262 20.5561C14.9906 19.4066 15.1258 18.2412 15.5207 17.1532C15.9157 16.0651 16.5596 15.0844 17.401 14.2895C18.2425 13.4946 19.2581 12.9074 20.3668 12.5748C21.4756 12.2422 22.6467 12.1735 23.7867 12.3741C24.9267 12.5746 26.0041 13.039 26.9327 13.73C27.8614 14.4211 28.6156 15.3196 29.1351 16.354C29.6547 17.3884 29.9252 18.53 29.9251 19.6875Z" fill="white"/>
<path d="M25.3125 19.6875C25.3125 20.4334 25.0162 21.1488 24.4887 21.6762C23.9613 22.2037 23.2459 22.5 22.5 22.5C21.7541 22.5 21.0387 22.2037 20.5113 21.6762C19.9838 21.1488 19.6875 20.4334 19.6875 19.6875C19.6875 18.9416 19.9838 18.2262 20.5113 17.6988C21.0387 17.1713 21.7541 16.875 22.5 16.875C23.2459 16.875 23.9613 17.1713 24.4887 17.6988C25.0162 18.2262 25.3125 18.9416 25.3125 19.6875Z" fill="white"/>
</svg>
