<svg width="45" height="45" viewBox="0 0 45 45" fill="none" xmlns="http://www.w3.org/2000/svg">
<path d="M16.2656 30.5156C16.6094 30.1094 16.7813 29.6481 16.7813 29.1319C16.7813 28.6169 16.6094 28.1875 16.2656 27.8438L12.7969 24.375H26.25C26.7813 24.375 27.2263 24.195 27.585 23.835C27.945 23.4762 28.125 23.0312 28.125 22.5C28.125 21.9688 27.945 21.5231 27.585 21.1631C27.2263 20.8044 26.7813 20.625 26.25 20.625H12.7969L16.2656 17.1562C16.6406 16.7812 16.8281 16.3362 16.8281 15.8212C16.8281 15.305 16.6406 14.8594 16.2656 14.4844C15.9219 14.1094 15.4919 13.9219 14.9756 13.9219C14.4606 13.9219 14.0312 14.0938 13.6875 14.4375L6.9375 21.1875C6.75 21.375 6.61687 21.5781 6.53813 21.7969C6.46062 22.0156 6.42188 22.25 6.42188 22.5C6.42188 22.75 6.46062 22.9844 6.53813 23.2031C6.61687 23.4219 6.75 23.625 6.9375 23.8125L13.6875 30.5625C14.0938 30.9687 14.5388 31.1481 15.0225 31.1006C15.5075 31.0544 15.9219 30.8594 16.2656 30.5156ZM35.625 39.375C36.6563 39.375 37.5394 39.0081 38.2744 38.2744C39.0081 37.5394 39.375 36.6562 39.375 35.625V9.375C39.375 8.34375 39.0081 7.46062 38.2744 6.72562C37.5394 5.99187 36.6563 5.625 35.625 5.625H24.375C23.8438 5.625 23.3981 5.80437 23.0381 6.16312C22.6794 6.52312 22.5 6.96875 22.5 7.5C22.5 8.03125 22.6794 8.47625 23.0381 8.835C23.3981 9.195 23.8438 9.375 24.375 9.375H35.625V35.625H24.375C23.8438 35.625 23.3981 35.805 23.0381 36.165C22.6794 36.5238 22.5 36.9688 22.5 37.5C22.5 38.0312 22.6794 38.4762 23.0381 38.835C23.3981 39.195 23.8438 39.375 24.375 39.375H35.625Z" fill="white"/>
</svg>
