<svg width="43" height="37" viewBox="0 0 43 37" fill="none" xmlns="http://www.w3.org/2000/svg">
<path d="M4.11595 0.22578L37.4898 2.45047C38.1113 2.49336 40.0625 3.6282 40.3297 6.08984L42.5614 26.7104C42.6774 27.7862 42.5888 30.2991 40.4844 30.6908L8.00774 36.7243C7.80243 36.7623 7.5936 36.7812 7.38759 36.7812C6.6022 36.7812 3.77282 36.1498 3.47891 33.4112L0.439304 5.33398C0.153835 2.70922 1.74852 0.0647641 4.11595 0.22578ZM37.4012 3.70836L4.03087 1.48297C3.61084 1.45057 3.19153 1.55411 2.83485 1.77828L25.3784 22.2005L38.027 4.01351C37.8167 3.83 37.5988 3.72172 37.4012 3.70836ZM41.2902 26.8433L39.0584 6.22344C39.0177 5.85078 38.9241 5.48164 38.787 5.14414L30.5563 16.7998L41.2754 27.8143C41.3205 27.4925 41.3255 27.1663 41.2902 26.8433ZM7.77079 35.4847L40.2474 29.4519C40.426 29.4188 40.6032 29.2979 40.7614 29.108L30.4895 18.552L29.8243 17.8679L25.6323 24.106L19.0946 18.3917L16.9888 21.2L6.4229 35.2871C6.83814 35.4997 7.312 35.5692 7.77079 35.4847ZM1.70985 4.56969L4.74946 32.6469C4.82329 33.3303 5.07079 33.9631 5.44978 34.4623L18.1419 17.5409L1.99884 2.73312C1.74079 3.25836 1.63743 3.8982 1.70985 4.56969Z" fill="white"/>
</svg>
