<svg width="35" height="35" viewBox="0 0 35 35" fill="none" xmlns="http://www.w3.org/2000/svg">
<path d="M23.7804 2.22033C24.0617 2.2906 24.3036 2.46971 24.453 2.71829C24.6023 2.96688 24.6468 3.26458 24.5766 3.54595L24.0298 5.73345C23.9978 5.87566 23.9377 6.01004 23.853 6.12869C23.7683 6.24734 23.6608 6.34786 23.5367 6.42436C23.4126 6.50086 23.2745 6.55178 23.1305 6.57414C22.9864 6.5965 22.8394 6.58984 22.6979 6.55455C22.5565 6.51927 22.4236 6.45607 22.3069 6.36867C22.1903 6.28128 22.0922 6.17144 22.0186 6.04563C21.945 5.91981 21.8973 5.78055 21.8783 5.63603C21.8593 5.49151 21.8693 5.34465 21.9079 5.20408L22.4548 3.01658C22.525 2.73524 22.7042 2.49332 22.9527 2.34401C23.2013 2.1947 23.499 2.15021 23.7804 2.22033ZM30.3057 4.69439C30.4076 4.79599 30.4884 4.91669 30.5435 5.04957C30.5987 5.18245 30.627 5.3249 30.627 5.46876C30.627 5.61263 30.5987 5.75508 30.5435 5.88796C30.4884 6.02084 30.4076 6.14154 30.3057 6.24314L28.1182 8.43064C28.0165 8.53219 27.8958 8.61271 27.763 8.66762C27.6302 8.72252 27.4879 8.75072 27.3442 8.75062C27.2004 8.75052 27.0582 8.72211 26.9254 8.66702C26.7927 8.61193 26.6721 8.53124 26.5705 8.42955C26.469 8.32785 26.3885 8.20716 26.3336 8.07434C26.2787 7.94153 26.2505 7.7992 26.2506 7.65549C26.2507 7.51178 26.2791 7.36949 26.3342 7.23676C26.3893 7.10402 26.47 6.98344 26.5716 6.88189L28.7591 4.69439C28.9643 4.48934 29.2424 4.37415 29.5324 4.37415C29.8224 4.37415 30.1006 4.48934 30.3057 4.69439ZM13.7463 28.5075C14.2955 29.4206 15.1591 30.102 16.1749 30.4236C17.1908 30.7452 18.2891 30.685 19.2637 30.2544C20.2384 29.8237 21.0224 29.0521 21.4685 28.0845C21.9147 27.1168 21.9923 26.0196 21.687 24.9988L13.7463 28.5075ZM11.7338 29.3978L9.55071 30.3625C8.98628 30.6126 8.35946 30.6862 7.75245 30.5738C7.14544 30.4614 6.58657 30.1681 6.14914 29.7325L5.27414 28.8575C4.83827 28.4236 4.54381 27.8679 4.42942 27.2636C4.31503 26.6593 4.38607 26.0345 4.63321 25.4713L13.101 6.20158C13.3019 5.74675 13.6105 5.34766 14.0001 5.03881C14.3897 4.72995 14.8487 4.5206 15.3374 4.42885C15.8261 4.33711 16.3297 4.36572 16.8049 4.51222C17.28 4.65872 17.7123 4.9187 18.0645 5.2697L29.7282 16.8985C30.0796 17.2489 30.3402 17.6798 30.4874 18.1537C30.6347 18.6277 30.6641 19.1304 30.5732 19.6182C30.4822 20.1061 30.2737 20.5644 29.9656 20.9535C29.6575 21.3426 29.2591 21.6506 28.8051 21.851L23.6973 24.1085C24.2372 25.6645 24.1722 27.3667 23.5153 28.8772C22.8584 30.3876 21.6575 31.5957 20.1511 32.2617C18.6446 32.9278 16.9428 33.003 15.3835 32.4724C13.8242 31.9419 12.5215 30.8444 11.7338 29.3978ZM31.7188 10.9375H29.5313C29.2413 10.9375 28.9631 11.0527 28.7579 11.2579C28.5528 11.463 28.4376 11.7412 28.4376 12.0313C28.4376 12.3213 28.5528 12.5995 28.7579 12.8047C28.9631 13.0098 29.2413 13.125 29.5313 13.125H31.7188C32.0089 13.125 32.2871 13.0098 32.4922 12.8047C32.6973 12.5995 32.8126 12.3213 32.8126 12.0313C32.8126 11.7412 32.6973 11.463 32.4922 11.2579C32.2871 11.0527 32.0089 10.9375 31.7188 10.9375ZM15.1048 7.08314L6.63477 26.3506C6.56474 26.51 6.5446 26.6868 6.57701 26.8578C6.60942 27.0289 6.69285 27.1861 6.81633 27.3088L7.69352 28.1838C7.81852 28.308 7.97811 28.3916 8.15141 28.4236C8.32472 28.4556 8.50364 28.4345 8.66477 28.3631L27.9191 19.8494C28.0478 19.7928 28.1606 19.7056 28.248 19.5955C28.3353 19.4854 28.3945 19.3557 28.4203 19.2176C28.4462 19.0794 28.438 18.9371 28.3964 18.8028C28.3548 18.6686 28.2811 18.5465 28.1816 18.4472L16.5223 6.81845C16.4219 6.71866 16.2988 6.6447 16.1636 6.60294C16.0283 6.56117 15.885 6.55283 15.7458 6.57865C15.6066 6.60446 15.4758 6.66365 15.3645 6.75113C15.2533 6.83862 15.1649 6.9518 15.107 7.08095L15.1048 7.08314Z" fill="#404E47" fill-opacity="0.8"/>
<path d="M23.7804 2.22033C24.0617 2.2906 24.3036 2.46971 24.453 2.71829C24.6023 2.96688 24.6468 3.26458 24.5766 3.54595L24.0298 5.73345C23.9978 5.87566 23.9377 6.01004 23.853 6.12869C23.7683 6.24734 23.6608 6.34786 23.5367 6.42436C23.4126 6.50086 23.2745 6.55178 23.1305 6.57414C22.9864 6.5965 22.8394 6.58984 22.6979 6.55455C22.5565 6.51927 22.4236 6.45607 22.3069 6.36867C22.1902 6.28128 22.0922 6.17144 22.0186 6.04563C21.945 5.91981 21.8973 5.78055 21.8783 5.63603C21.8593 5.49151 21.8693 5.34465 21.9079 5.20408L22.4548 3.01658C22.525 2.73524 22.7042 2.49332 22.9527 2.34401C23.2013 2.1947 23.499 2.15021 23.7804 2.22033V2.22033ZM30.3057 4.69439C30.4076 4.79599 30.4884 4.91669 30.5435 5.04957C30.5987 5.18245 30.627 5.3249 30.627 5.46876C30.627 5.61263 30.5987 5.75508 30.5435 5.88796C30.4884 6.02084 30.4076 6.14154 30.3057 6.24314L28.1182 8.43064C28.0165 8.53219 27.8958 8.61271 27.763 8.66762C27.6302 8.72252 27.4879 8.75072 27.3442 8.75062C27.2004 8.75052 27.0582 8.72211 26.9254 8.66702C26.7927 8.61193 26.6721 8.53124 26.5705 8.42955C26.469 8.32785 26.3885 8.20716 26.3336 8.07434C26.2787 7.94153 26.2505 7.7992 26.2506 7.65549C26.2507 7.51178 26.2791 7.36949 26.3342 7.23676C26.3893 7.10402 26.47 6.98344 26.5716 6.88189L28.7591 4.69439C28.9643 4.48934 29.2424 4.37415 29.5324 4.37415C29.8224 4.37415 30.1006 4.48934 30.3057 4.69439V4.69439ZM13.7463 28.5075C14.2955 29.4206 15.1591 30.102 16.1749 30.4236C17.1908 30.7452 18.2891 30.685 19.2637 30.2544C20.2384 29.8237 21.0224 29.0521 21.4685 28.0845C21.9147 27.1168 21.9923 26.0196 21.687 24.9988L13.7463 28.5075V28.5075ZM11.7338 29.3978L9.55071 30.3625C8.98628 30.6126 8.35946 30.6862 7.75245 30.5738C7.14544 30.4614 6.58657 30.1681 6.14914 29.7325L5.27414 28.8575C4.83827 28.4236 4.54381 27.8679 4.42942 27.2636C4.31503 26.6593 4.38607 26.0345 4.63321 25.4713L13.101 6.20158C13.3019 5.74675 13.6105 5.34766 14.0001 5.03881C14.3897 4.72995 14.8487 4.5206 15.3374 4.42885C15.8261 4.33711 16.3297 4.36572 16.8049 4.51222C17.28 4.65872 17.7123 4.9187 18.0645 5.2697L29.7282 16.8985C30.0796 17.2489 30.3402 17.6798 30.4874 18.1537C30.6347 18.6277 30.6641 19.1304 30.5732 19.6182C30.4822 20.1061 30.2737 20.5644 29.9656 20.9535C29.6575 21.3426 29.2591 21.6506 28.8051 21.851L23.6973 24.1085C24.2372 25.6645 24.1722 27.3667 23.5153 28.8772C22.8584 30.3876 21.6575 31.5957 20.1511 32.2617C18.6446 32.9278 16.9428 33.003 15.3835 32.4724C13.8242 31.9419 12.5215 30.8444 11.7338 29.3978V29.3978ZM31.7188 10.9375H29.5313C29.2413 10.9375 28.9631 11.0527 28.7579 11.2579C28.5528 11.463 28.4376 11.7412 28.4376 12.0313C28.4376 12.3213 28.5528 12.5995 28.7579 12.8047C28.9631 13.0098 29.2413 13.125 29.5313 13.125H31.7188C32.0089 13.125 32.2871 13.0098 32.4922 12.8047C32.6973 12.5995 32.8126 12.3213 32.8126 12.0313C32.8126 11.7412 32.6973 11.463 32.4922 11.2579C32.2871 11.0527 32.0089 10.9375 31.7188 10.9375ZM15.1048 7.08314L6.63477 26.3506C6.56474 26.51 6.5446 26.6868 6.57701 26.8578C6.60942 27.0289 6.69285 27.1861 6.81633 27.3088L7.69352 28.1838C7.81852 28.308 7.97811 28.3916 8.15141 28.4236C8.32472 28.4556 8.50364 28.4345 8.66477 28.3631L27.9191 19.8494C28.0478 19.7928 28.1606 19.7056 28.248 19.5955C28.3353 19.4854 28.3945 19.3557 28.4203 19.2176C28.4462 19.0794 28.438 18.9371 28.3964 18.8028C28.3548 18.6686 28.2811 18.5465 28.1816 18.4472L16.5223 6.81845C16.4219 6.71866 16.2988 6.6447 16.1636 6.60294C16.0283 6.56117 15.885 6.55283 15.7458 6.57865C15.6066 6.60446 15.4758 6.66365 15.3645 6.75113C15.2533 6.83862 15.1649 6.9518 15.107 7.08095L15.1048 7.08314Z" fill="#404E47" fill-opacity="0.8"/>
</svg>
