<svg width="40" height="40" viewBox="0 0 40 40" fill="none" xmlns="http://www.w3.org/2000/svg">
<path d="M33.745 1.9875L34.1175 1.615C34.3979 1.33479 34.7307 1.11255 35.097 0.960965C35.4632 0.809381 35.8558 0.731421 36.2522 0.731537C36.6486 0.731653 37.041 0.809843 37.4072 0.961642C37.7734 1.11344 38.1061 1.33588 38.3863 1.61625C38.6665 1.89662 38.8887 2.22944 39.0403 2.5957C39.1919 2.96196 39.2699 3.35449 39.2697 3.75088C39.2696 4.14727 39.1914 4.53976 39.0396 4.90593C38.8878 5.2721 38.6654 5.60479 38.385 5.885L38.0125 6.255C38.6497 6.96965 38.9895 7.90098 38.962 8.85807C38.9346 9.81516 38.5421 10.7255 37.865 11.4025L12.135 37.135C11.9742 37.295 11.7728 37.4082 11.5525 37.4625L1.55253 39.9625C1.34326 40.0146 1.12407 40.0117 0.91626 39.954C0.708453 39.8964 0.519099 39.7859 0.366605 39.6334C0.214111 39.4809 0.103664 39.2916 0.0460001 39.0838C-0.0116634 38.876 -0.0145819 38.6568 0.0375284 38.4475L2.53753 28.4475C2.59223 28.2281 2.70541 28.0277 2.86503 27.8675L26.97 3.7625C26.7289 3.59282 26.4357 3.51381 26.142 3.53943C25.8483 3.56505 25.5731 3.69365 25.365 3.9025L17.135 12.135C17.0188 12.2512 16.8808 12.3434 16.729 12.4063C16.5771 12.4692 16.4144 12.5016 16.25 12.5016C16.0857 12.5016 15.9229 12.4692 15.7711 12.4063C15.6192 12.3434 15.4812 12.2512 15.365 12.135C15.2488 12.0188 15.1566 11.8808 15.0937 11.729C15.0308 11.5771 14.9984 11.4144 14.9984 11.25C14.9984 11.0856 15.0308 10.9229 15.0937 10.771C15.1566 10.6192 15.2488 10.4812 15.365 10.365L23.6 2.135C24.2775 1.45754 25.1885 1.06505 26.1462 1.03809C27.1039 1.01112 28.0355 1.35173 28.75 1.99C29.4369 1.3761 30.3258 1.03653 31.2471 1.03607C32.1683 1.03561 33.0575 1.37428 33.745 1.9875ZM32.135 3.9025C31.9006 3.66816 31.5827 3.53652 31.2513 3.53652C30.9198 3.53652 30.6019 3.66816 30.3675 3.9025L4.87503 29.39L2.96503 37.0325L10.6075 35.1225L36.1 9.635C36.2164 9.51889 36.3088 9.38095 36.3718 9.22908C36.4348 9.07722 36.4673 8.91442 36.4673 8.75C36.4673 8.58558 36.4348 8.42278 36.3718 8.27091C36.3088 8.11905 36.2164 7.98111 36.1 7.865L32.1375 3.9025H32.135Z" fill="white"/>
</svg>
