<svg width="45" height="45" viewBox="0 0 45 45" fill="none" xmlns="http://www.w3.org/2000/svg">
<path d="M22.5 30.9375C20.8312 30.9375 19.1999 30.4426 17.8124 29.5155C16.4248 28.5884 15.3434 27.2706 14.7048 25.7289C14.0662 24.1871 13.8991 22.4906 14.2246 20.8539C14.5502 19.2172 15.3538 17.7138 16.5338 16.5338C17.7138 15.3538 19.2172 14.5502 20.8539 14.2246C22.4906 13.8991 24.1871 14.0662 25.7289 14.7048C27.2706 15.3434 28.5884 16.4248 29.5155 17.8124C30.4427 19.1999 30.9375 20.8312 30.9375 22.5C30.9496 23.6114 30.7395 24.714 30.3198 25.7431C29.9 26.7722 29.279 27.7072 28.4931 28.4931C27.7072 29.279 26.7722 29.9 25.7431 30.3198C24.714 30.7395 23.6114 30.9495 22.5 30.9375V30.9375ZM22.5 16.875C21.7567 16.8581 21.0177 16.992 20.3276 17.2687C19.6375 17.5454 19.0106 17.9591 18.4849 18.4849C17.9591 19.0106 17.5454 19.6374 17.2687 20.3276C16.992 21.0177 16.8581 21.7567 16.875 22.5C16.8581 23.2433 16.992 23.9823 17.2687 24.6725C17.5454 25.3626 17.9591 25.9894 18.4849 26.5151C19.0106 27.0409 19.6375 27.4546 20.3276 27.7313C21.0177 28.008 21.7567 28.1419 22.5 28.125C23.2433 28.1419 23.9823 28.008 24.6725 27.7313C25.3626 27.4546 25.9894 27.0409 26.5151 26.5151C27.0409 25.9894 27.4546 25.3626 27.7313 24.6725C28.008 23.9823 28.1419 23.2433 28.125 22.5C28.1419 21.7567 28.008 21.0177 27.7313 20.3276C27.4546 19.6374 27.0409 19.0106 26.5151 18.4849C25.9894 17.9591 25.3626 17.5454 24.6725 17.2687C23.9823 16.992 23.2433 16.8581 22.5 16.875V16.875Z" fill="white"/>
<path d="M41.2102 15.5306L37.8915 9.78187C37.5666 9.21822 37.0562 8.78478 36.4473 8.5555C35.8385 8.32623 35.169 8.31534 34.553 8.52469L31.1302 9.68203C30.5403 9.28489 29.9239 8.92874 29.2852 8.61609L28.5779 5.07375C28.4504 4.43594 28.1058 3.86202 27.6027 3.44973C27.0996 3.03743 26.4692 2.81224 25.8188 2.8125H19.1813C18.5309 2.81224 17.9005 3.03743 17.3974 3.44973C16.8943 3.86202 16.5497 4.43594 16.4222 5.07375L15.7149 8.61609C15.069 8.92531 14.4455 9.27914 13.8488 9.675L10.4457 8.52469C9.83007 8.31607 9.16119 8.32734 8.55296 8.55658C7.94474 8.78581 7.43481 9.21884 7.11005 9.78187L3.7913 15.5306C3.46619 16.0935 3.34611 16.7517 3.45148 17.3931C3.55685 18.0346 3.88116 18.6197 4.36927 19.0491L7.08474 21.4355C7.06083 21.7898 7.0313 22.1414 7.0313 22.5C7.0313 22.8628 7.04536 23.2214 7.07067 23.5772L4.37067 25.9509C3.88212 26.3799 3.55726 26.9649 3.45137 27.6063C3.34549 28.2478 3.46511 28.9062 3.78989 29.4694L7.10864 35.2181C7.4333 35.782 7.94361 36.2158 8.55246 36.4453C9.16131 36.6748 9.83095 36.6859 10.4471 36.4767L13.8699 35.318C14.4596 35.7158 15.076 36.0725 15.7149 36.3853L16.4222 39.9263C16.5497 40.5641 16.8943 41.138 17.3974 41.5503C17.9005 41.9626 18.5309 42.1878 19.1813 42.1875H25.3125V39.375H19.1813L18.1829 34.3828C16.8017 33.8697 15.5195 33.1219 14.393 32.1722L9.54567 33.8119L6.22692 28.0631L10.059 24.6952C9.79678 23.2409 9.79345 21.7518 10.0491 20.2964L6.22692 16.9369L9.54567 11.1881L14.3649 12.8194C15.4995 11.8684 16.7916 11.1231 18.1829 10.6172L19.1813 5.625H25.8188L26.8172 10.6172C28.1984 11.1303 29.4805 11.8782 30.6071 12.8278L35.4544 11.1881L38.7732 16.9369L34.8385 20.385L36.6919 22.5L40.6294 19.0491C41.118 18.6201 41.4428 18.0351 41.5487 17.3937C41.6546 16.7522 41.535 16.0938 41.2102 15.5306V15.5306Z" fill="white"/>
<path d="M32.3438 36.8156L28.7016 33.1734L26.7188 35.1562L32.3438 40.7812L42.1875 30.9375L40.2047 28.9547L32.3438 36.8156Z" fill="white"/>
</svg>
