<svg width="45" height="45" viewBox="0 0 45 45" fill="none" xmlns="http://www.w3.org/2000/svg">
<path d="M39.375 35.625H16.875M5.625 9.375H13.125H5.625ZM39.375 9.375H20.625H39.375ZM5.625 22.5H28.125H5.625ZM39.375 22.5H35.625H39.375ZM5.625 35.625H9.375H5.625Z" stroke="white" stroke-width="2" stroke-linecap="round"/>
<path d="M16.875 13.125C18.9461 13.125 20.625 11.4461 20.625 9.375C20.625 7.30393 18.9461 5.625 16.875 5.625C14.8039 5.625 13.125 7.30393 13.125 9.375C13.125 11.4461 14.8039 13.125 16.875 13.125Z" stroke="white" stroke-width="2" stroke-linecap="round"/>
<path d="M31.875 26.25C33.9461 26.25 35.625 24.5711 35.625 22.5C35.625 20.4289 33.9461 18.75 31.875 18.75C29.8039 18.75 28.125 20.4289 28.125 22.5C28.125 24.5711 29.8039 26.25 31.875 26.25Z" stroke="white" stroke-width="2" stroke-linecap="round"/>
<path d="M13.125 39.375C15.1961 39.375 16.875 37.6961 16.875 35.625C16.875 33.5539 15.1961 31.875 13.125 31.875C11.0539 31.875 9.375 33.5539 9.375 35.625C9.375 37.6961 11.0539 39.375 13.125 39.375Z" stroke="white" stroke-width="2" stroke-linecap="round"/>
</svg>
