<svg width="18" height="18" viewBox="0 0 18 18" fill="none" xmlns="http://www.w3.org/2000/svg">
<path d="M5.80036 13.7997L7.40049 12.1996H9.00061L10.0887 11.1115C11.2009 11.499 12.4117 11.4974 13.523 11.1071C14.6342 10.7168 15.58 9.96083 16.2056 8.96293C16.8313 7.96504 17.0996 6.78432 16.9668 5.61404C16.834 4.44375 16.3079 3.3532 15.4745 2.52089C14.6412 1.68858 13.55 1.1638 12.3796 1.03245C11.2091 0.901096 10.0288 1.17095 9.03168 1.79783C8.03458 2.42472 7.27981 3.37151 6.8909 4.48325C6.50199 5.59499 6.50197 6.80582 6.89085 7.91757L1 13.7997V17H4.20024L5.80036 15.3999V13.7997Z" stroke="#C0B9B9" stroke-width="2" stroke-linecap="round" stroke-linejoin="round"/>
<path d="M11 6.99816C11.5523 6.99816 12 6.55045 12 5.99816C12 5.44588 11.5523 4.99816 11 4.99816C10.4477 4.99816 10 5.44588 10 5.99816C10 6.55045 10.4477 6.99816 11 6.99816Z" stroke="#C0B9B9" stroke-width="2" stroke-linecap="round" stroke-linejoin="round"/>
</svg>
