<svg width="24" height="24" viewBox="0 0 24 24" fill="none" xmlns="http://www.w3.org/2000/svg">
<path d="M12 11.9C11.6955 11.8968 11.3973 11.9776 11.1454 12.1316C10.8936 12.2855 10.7001 12.5052 10.5912 12.7611C10.4823 13.017 10.4631 13.2968 10.5361 13.5628C10.6092 13.8288 10.7711 14.0683 11 14.249V15.5C11 15.7387 11.1054 15.9676 11.2929 16.1364C11.4804 16.3052 11.7348 16.4 12 16.4C12.2652 16.4 12.5196 16.3052 12.7071 16.1364C12.8946 15.9676 13 15.7387 13 15.5V14.249C13.2289 14.0683 13.3908 13.8288 13.4639 13.5628C13.5369 13.2968 13.5177 13.017 13.4088 12.7611C13.2999 12.5052 13.1064 12.2855 12.8546 12.1316C12.6027 11.9776 12.3045 11.8968 12 11.9ZM17 8.3V6.5C17 5.30653 16.4732 4.16193 15.5355 3.31802C14.5979 2.47411 13.3261 2 12 2C10.6739 2 9.40215 2.47411 8.46447 3.31802C7.52678 4.16193 7 5.30653 7 6.5V8.3C6.20435 8.3 5.44129 8.58446 4.87868 9.09081C4.31607 9.59716 4 10.2839 4 11V17.3C4 18.0161 4.31607 18.7028 4.87868 19.2092C5.44129 19.7155 6.20435 20 7 20H17C17.7956 20 18.5587 19.7155 19.1213 19.2092C19.6839 18.7028 20 18.0161 20 17.3V11C20 10.2839 19.6839 9.59716 19.1213 9.09081C18.5587 8.58446 17.7956 8.3 17 8.3ZM9 6.5C9 5.78392 9.31607 5.09716 9.87868 4.59081C10.4413 4.08446 11.2044 3.8 12 3.8C12.7956 3.8 13.5587 4.08446 14.1213 4.59081C14.6839 5.09716 15 5.78392 15 6.5V8.3H9V6.5ZM18 17.3C18 17.5387 17.8946 17.7676 17.7071 17.9364C17.5196 18.1052 17.2652 18.2 17 18.2H7C6.73478 18.2 6.48043 18.1052 6.29289 17.9364C6.10536 17.7676 6 17.5387 6 17.3V11C6 10.7613 6.10536 10.5324 6.29289 10.3636C6.48043 10.1948 6.73478 10.1 7 10.1H17C17.2652 10.1 17.5196 10.1948 17.7071 10.3636C17.8946 10.5324 18 10.7613 18 11V17.3Z" fill="white"/>
</svg>
